# xmcd CD database file
#
# Track frame offsets:
#	150
#	4821
#	23980
#	43690
#	61059
#	80151
#	98919
#	117900
#	134155
#	143058
#	160845
#	179987
#	199031
#	216134
#	239649
#
# Disc length: 3339 seconds
#
# Revision: 12
# Processed by: cddbd v1.5.1PL0 Copyright (c) Steve Scherf et al.
# Submitted via: CDex 1.51
#
DISCID=e00d090f
DTITLE=Dreams Come True - The Monster
DYEAR=1999
DGENRE=JPop
TTITLE0=opening theme -the monster is coming-
TTITLE1=なんて恋したんだろ
TTITLE2=みつばち
TTITLE3=go on, baby !
TTITLE4=キレイキレイ
TTITLE5=make me your own
TTITLE6=朝がまた来る
TTITLE7=FUNKA-MONSTER
TTITLE8=モンキーガール番外編 "ガンバレあたし !"
TTITLE9=東京ATLAS
TTITLE10=NUDEの夜
TTITLE11=三日月
TTITLE12=夢で逢ってるから
TTITLE13=come closer
TTITLE14=dragonfly
EXTD=YEAR: 1999
EXTT0=
EXTT1=
EXTT2=
EXTT3=
EXTT4=
EXTT5=
EXTT6=
EXTT7=
EXTT8=
EXTT9=
EXTT10=
EXTT11=
EXTT12=
EXTT13=
EXTT14=
PLAYORDER=
